<svg xmlns="http://www.w3.org/2000/svg" viewBox="0 0 64 64">
  <defs>
    <linearGradient id="adminGrad" x1="0%" y1="0%" x2="100%" y2="100%">
      <stop offset="0%" style="stop-color:#8b5cf6;stop-opacity:1" />
      <stop offset="100%" style="stop-color:#6366f1;stop-opacity:1" />
    </linearGradient>
  </defs>

  <!-- Background circle -->
  <circle cx="32" cy="32" r="30" fill="url(#adminGrad)"/>

  <!-- Settings gear icon -->
  <g fill="#ffffff">
    <!-- Center circle -->
    <circle cx="32" cy="32" r="8"/>

    <!-- Gear teeth -->
    <path d="M32,12 L34,12 L34,18 L30,18 L30,12 L32,12 Z"/>
    <path d="M32,46 L34,46 L34,52 L30,52 L30,46 L32,46 Z"/>
    <path d="M12,32 L12,30 L18,30 L18,34 L12,34 L12,32 Z"/>
    <path d="M46,32 L46,30 L52,30 L52,34 L46,34 L46,32 Z"/>

    <path d="M19.5,19.5 L20.9,18.1 L25.15,22.35 L22.35,25.15 L18.1,20.9 L19.5,19.5 Z"/>
    <path d="M44.5,44.5 L45.9,43.1 L41.65,38.85 L38.85,41.65 L43.1,45.9 L44.5,44.5 Z"/>
    <path d="M19.5,44.5 L18.1,43.1 L22.35,38.85 L25.15,41.65 L20.9,45.9 L19.5,44.5 Z"/>
    <path d="M44.5,19.5 L43.1,18.1 L38.85,22.35 L41.65,25.15 L45.9,20.9 L44.5,19.5 Z"/>
  </g>
</svg>
